# xmcd
#
# Track frame offsets: 
#        150
#        10241
#        40652
#        56140
#        95031
#        129602
#        158504
#        181315
#
# Disc length: 2873 seconds
#
# Revision: 1
# Processed by: cddbd v1.5.2PL0 Copyright (c) Steve Scherf et al.
# Submitted via: ExactAudioCopy v1.0b3
#
DISCID=610b3708
DTITLE=Bonamassa, Joe - Shepherd's Bush Empire
DYEAR=2014
DGENRE=Blues
TTITLE0=Albion (Intro)
TTITLE1=Slow Train
TTITLE2=So, It's Like That
TTITLE3=Midnight Blues
TTITLE4=Last Kiss
TTITLE5=So Many Roads
TTITLE6=You Better Watch Yourself
TTITLE7=Chains and Things
EXTD=
EXTT0=
EXTT1=
EXTT2=
EXTT3=
EXTT4=
EXTT5=
EXTT6=
EXTT7=
PLAYORDER=
